<svg data-v-423bf9ae="" xmlns="http://www.w3.org/2000/svg" viewBox="0 0 241.07892288347662 60" class="font"><!----><!----><!----><g data-v-423bf9ae="" id="0610ad2e-8610-47ca-a26c-bac66d986d7f" fill="#000000" transform="matrix(5.9940058569511425,0,0,5.9940058569511425,-5.874123775826973,-31.10889026371904)"><path d="M4.90 5.75L4.90 5.75L3.92 5.75L3.92 10.54L6.86 10.54L6.86 11.17L3.92 11.17L3.92 14.43L5.46 14.43L5.46 14.99L0.98 14.99L0.98 14.43L1.82 14.43L1.82 5.75L0.98 5.75L0.98 5.19L6.99 5.19L6.99 5.19Q7.29 5.19 7.44 5.21L7.44 5.21L7.44 5.21Q7.59 5.24 7.71 5.37L7.71 5.37L7.71 5.37Q7.84 5.50 7.84 5.78L7.84 5.78L7.46 8.13L6.92 8.13L6.64 6.75L6.64 6.75Q6.51 6.12 6.17 5.94L6.17 5.94L6.17 5.94Q5.82 5.75 4.90 5.75ZM9.92 14.13L9.92 14.13L9.92 14.13Q8.89 13.06 8.89 11.49L8.89 11.49L8.89 11.49Q8.89 9.93 9.92 8.86L9.92 8.86L9.92 8.86Q10.95 7.78 12.60 7.78L12.60 7.78L12.60 7.78Q14.25 7.78 15.28 8.86L15.28 8.86L15.28 8.86Q16.31 9.93 16.31 11.49L16.31 11.49L16.31 11.49Q16.31 13.06 15.28 14.13L15.28 14.13L15.28 14.13Q14.25 15.20 12.60 15.20L12.60 15.20L12.60 15.20Q10.95 15.20 9.92 14.13ZM11.45 9.25L11.45 9.25L11.45 9.25Q11.06 10.12 11.06 11.49L11.06 11.49L11.06 11.49Q11.06 12.87 11.45 13.74L11.45 13.74L11.45 13.74Q11.84 14.62 12.61 14.62L12.61 14.62L12.61 14.62Q13.38 14.62 13.78 13.74L13.78 13.74L13.78 13.74Q14.17 12.87 14.17 11.49L14.17 11.49L14.17 11.49Q14.17 10.12 13.78 9.25L13.78 9.25L13.78 9.25Q13.38 8.37 12.61 8.37L12.61 8.37L12.61 8.37Q11.84 8.37 11.45 9.25ZM21.85 15.20L21.85 15.20L21.85 15.20Q20.19 15.20 19.16 14.13L19.16 14.13L19.16 14.13Q18.13 13.06 18.13 11.49L18.13 11.49L18.13 11.49Q18.13 9.93 19.16 8.86L19.16 8.86L19.16 8.86Q20.19 7.78 21.84 7.78L21.84 7.78L21.84 7.78Q22.76 7.78 23.65 8.32L23.65 8.32L23.65 8.32Q24.53 8.85 24.53 9.76L24.53 9.76L24.53 9.76Q24.53 10.22 24.20 10.55L24.20 10.55L24.20 10.55Q23.87 10.88 23.41 10.88L23.41 10.88L23.41 10.88Q22.95 10.88 22.62 10.55L22.62 10.55L22.62 10.55Q22.29 10.22 22.29 9.80L22.29 9.80L22.29 9.80Q22.29 9.38 22.51 9.09L22.51 9.09L22.51 9.09Q22.74 8.79 23.10 8.68L23.10 8.68L23.10 8.68Q22.71 8.51 22.20 8.51L22.20 8.51L22.20 8.51Q21.27 8.51 20.78 9.34L20.78 9.34L20.78 9.34Q20.30 10.18 20.30 11.46L20.30 11.46L20.30 11.46Q20.30 12.74 20.78 13.54L20.78 13.54L20.78 13.54Q21.27 14.34 22.20 14.34L22.20 14.34L22.20 14.34Q23.46 14.34 24.35 13.29L24.35 13.29L24.74 13.54L24.74 13.54Q24.28 14.29 23.53 14.75L23.53 14.75L23.53 14.75Q22.78 15.20 21.85 15.20ZM28.92 8.64L28.92 8.64L28.92 13.44L28.92 13.44Q28.92 13.87 29.19 14.11L29.19 14.11L29.19 14.11Q29.46 14.35 29.93 14.35L29.93 14.35L29.93 14.35Q30.41 14.35 30.86 13.96L30.86 13.96L30.86 13.96Q31.30 13.57 31.30 12.94L31.30 12.94L31.30 7.99L33.40 7.99L33.40 13.44L33.40 13.44Q33.40 13.82 33.59 14.04L33.59 14.04L33.59 14.04Q33.77 14.25 34.15 14.25L34.15 14.25L34.15 14.25Q34.52 14.25 35.01 13.85L35.01 13.85L35.27 14.18L35.27 14.18Q34.15 15.20 32.98 15.20L32.98 15.20L32.98 15.20Q31.82 15.20 31.44 14.17L31.44 14.17L31.44 14.17Q30.90 14.74 30.32 14.97L30.32 14.97L30.32 14.97Q29.74 15.20 28.83 15.20L28.83 15.20L28.83 15.20Q27.93 15.20 27.38 14.65L27.38 14.65L27.38 14.65Q26.82 14.10 26.82 13.15L26.82 13.15L26.82 8.46L26.82 8.46Q26.05 8.65 25.65 9.14L25.65 9.14L25.27 8.71L25.27 8.71Q25.68 8.29 26.30 8.04L26.30 8.04L26.30 8.04Q26.92 7.78 27.53 7.78L27.53 7.78L27.53 7.78Q28.14 7.78 28.53 8.03L28.53 8.03L28.53 8.03Q28.92 8.27 28.92 8.64ZM37.44 9.14L37.44 9.14L37.44 9.14Q37.10 8.62 37.10 8.22L37.10 8.22L37.10 8.22Q37.10 7.81 37.42 7.50L37.42 7.50L37.42 7.50Q37.73 7.18 38.18 7.18L38.18 7.18L38.18 7.18Q38.63 7.18 38.94 7.50L38.94 7.50L38.94 7.50Q39.26 7.81 39.26 8.25L39.26 8.25L39.26 8.25Q39.26 8.68 38.82 9.17L38.82 9.17L38.82 9.17Q39.97 10.01 40.59 10.81L40.59 10.81L40.59 10.81Q41.20 11.62 41.20 12.68L41.20 12.68L41.20 12.68Q41.20 13.73 40.40 14.47L40.40 14.47L40.40 14.47Q39.61 15.20 38.14 15.20L38.14 15.20L38.14 15.20Q37.46 15.20 36.79 14.91L36.79 14.91L36.79 14.91Q36.11 14.62 35.76 14.18L35.76 14.18L36.08 13.85L36.08 13.85Q36.69 14.34 37.41 14.34L37.41 14.34L37.41 14.34Q38.12 14.34 38.58 13.95L38.58 13.95L38.58 13.95Q39.03 13.57 39.03 12.75L39.03 12.75L39.03 12.75Q39.03 11.47 38.08 10.07L38.08 10.07L35.97 12.71L35.62 12.40L35.62 12.40Q36.68 10.68 37.44 9.14Z"></path></g><!----><!----></svg>